<?xml version="1.0" standalone="no"?><!DOCTYPE svg PUBLIC "-//W3C//DTD SVG 1.1//EN" "http://www.w3.org/Graphics/SVG/1.1/DTD/svg11.dtd"><svg class="icon" width="200px" height="200.00px" viewBox="0 0 1024 1024" version="1.1" xmlns="http://www.w3.org/2000/svg"><path fill="#333333" d="M501.003 808.048c3.827 3.792 9.094 6.136 14.909 6.136 0.010 0 0.020 0 0.030 0h0.028c0.082 0 0.167-0.011 0.249-0.013 0.364 0.018 0.721 0.055 1.089 0.055 0.777 0 1.541-0.048 2.297-0.128 5.75-0.487 10.787-3.2 14.305-7.263l367.689-362.234c8.388-8.267 8.488-21.766 0.219-30.155s-21.767-8.49-30.156-0.221l-333.033 328.178v-722.436c0-11.776-9.547-21.323-21.323-21.323s-21.323 9.547-21.323 21.323v723.259l-337.815-332.935c-8.386-8.266-21.889-8.169-30.155 0.219s-8.169 21.889 0.219 30.154l372.77 367.385z"  /><path fill="#333333" d="M902.97 747.593c-11.777 0-21.323 9.547-21.323 21.324v182.094c0 14.37-11.691 26.061-26.062 26.061h-681.328c-14.371 0-26.063-11.692-26.063-26.062v-182.093c0-11.777-9.547-21.323-21.323-21.323s-21.324 9.546-21.324 21.323v182.094c0 37.885 30.824 68.708 68.71 68.708h681.33c37.888 0 68.709-30.823 68.709-68.709v-182.093c0.001-11.777-9.545-21.323-21.322-21.323z"  /></svg>