<?xml version="1.0" standalone="no"?><!DOCTYPE svg PUBLIC "-//W3C//DTD SVG 1.1//EN" "http://www.w3.org/Graphics/SVG/1.1/DTD/svg11.dtd"><svg class="icon" width="200px" height="200.00px" viewBox="0 0 1024 1024" version="1.1" xmlns="http://www.w3.org/2000/svg"><path fill="#333333" d="M832 0H390.4c-19.2 0-38.4 12.8-51.2 25.6l-192 192c-12.8 12.8-19.2 32-19.2 44.8V960c0 38.4 32 64 64 64h620.8c32 0 83.2-25.6 83.2-64V64c0-32-32-64-64-64zM358.4 57.6v140.8c0 19.2-12.8 32-32 32H185.6L358.4 57.6zM864 960c0 12.8-25.6 32-51.2 32H192c-19.2 0-32-12.8-32-32V262.4h166.4c38.4 0 64-32 64-64V32H832c19.2 0 32 12.8 32 32v896zM729.6 217.6h-224c-6.4 0-19.2 6.4-19.2 19.2 0 6.4 6.4 19.2 19.2 19.2H736c6.4 0 19.2-6.4 19.2-19.2-6.4-12.8-12.8-19.2-25.6-19.2z m0 147.2H294.4c-6.4 0-19.2 6.4-19.2 19.2 0 6.4 6.4 19.2 19.2 19.2H736c6.4 0 19.2-6.4 19.2-19.2-6.4-12.8-12.8-19.2-25.6-19.2z m0 166.4H294.4c-6.4 0-19.2 6.4-19.2 19.2 0 6.4 6.4 19.2 19.2 19.2H736c6.4 0 19.2-6.4 19.2-19.2-6.4-12.8-12.8-19.2-25.6-19.2z m0 147.2H294.4c-6.4 0-19.2 6.4-19.2 19.2 0 6.4 6.4 19.2 19.2 19.2H736c6.4 0 19.2-6.4 19.2-19.2-6.4-12.8-12.8-19.2-25.6-19.2z m0 166.4H288c-6.4 0-19.2 6.4-19.2 19.2 0 6.4 6.4 19.2 19.2 19.2h435.2c6.4 0 19.2-6.4 19.2-19.2 0-12.8-6.4-19.2-12.8-19.2z"  /></svg>