<?xml version="1.0" standalone="no"?><!DOCTYPE svg PUBLIC "-//W3C//DTD SVG 1.1//EN"
        "http://www.w3.org/Graphics/SVG/1.1/DTD/svg11.dtd">
<svg class="icon" width="20px" height="20px" viewBox="0 0 1024 1024" version="1.1"
     xmlns="http://www.w3.org/2000/svg">
    <path fill="#333333"
          d="M261.676 131.193c20.563 0 50.062 10.347 66.038 23.238l54.26 43.747c15.901 12.837 45.567 23.239 66.094 23.239h362.547c30.855 0 55.877 24.947 55.877 55.69v21.269h110.935c30.725 0 48.65 24.038 40.050 53.537l-136.682 469.489c-11.479 39.436-54.019 71.406-94.923 71.406h-773.875v-705.924c0-30.761 24.948-55.69 55.654-55.69h194.025zM977.426 316.952h-736.722c-22.459 0-47.091 18.519-53.388 40.162l-150.502 516.913 749.057 0.204c32.638 0 67.913-26.526 77.090-58.031l136.683-469.47c5.145-17.666-3.901-29.777-22.217-29.777zM448.067 239.992c-24.78 0-58.552-11.869-77.759-27.343l-54.261-43.765c-12.65-10.199-38.024-19.115-54.372-19.115h-194.026c-20.453 0-37.077 16.625-37.077 37.114v642.116l138.891-477.086c8.619-29.573 40.514-53.537 71.239-53.537h607.212v-21.269c0-20.47-16.7-37.115-37.301-37.115h-362.547z"/>
</svg>