<?xml version="1.0" standalone="no"?><!DOCTYPE svg PUBLIC "-//W3C//DTD SVG 1.1//EN" "http://www.w3.org/Graphics/SVG/1.1/DTD/svg11.dtd"><svg t="1503989046667" class="icon" style="" viewBox="0 0 1024 1024" version="1.1" xmlns="http://www.w3.org/2000/svg" p-id="636" xmlns:xlink="http://www.w3.org/1999/xlink" width="128" height="128"><defs><style type="text/css"></style></defs><path d="M511.0897777777778 1010.1191111111111c-67.81155555555556 0-133.68888888888887-13.311999999999998-195.584-39.48088888888889-59.960888888888896-25.372444444444447-113.664-61.55377777777778-159.97155555555554-107.86133333333332-46.193777777777775-46.193777777777775-82.48888888888888-100.01066666666667-107.86133333333332-159.85777777777778-26.282666666666668-62.00888888888889-39.59466666666666-127.88622222222222-39.59466666666666-195.81155555555554S21.503999999999962 373.3048888888889 47.78666666666669 311.29600000000005c25.372444444444447-59.960888888888896 61.66755555555555-113.664 107.86133333333332-159.97155555555554 46.193777777777775-46.193777777777775 100.01066666666667-82.48888888888888 159.97155555555554-107.86133333333332 62.00888888888889-26.282666666666668 127.88622222222222-39.59466666666666 195.81155555555554-39.59466666666666 67.92533333333333 0 133.80266666666665 13.311999999999998 195.81155555555554 39.59466666666666 59.960888888888896 25.372444444444447 113.664 61.66755555555555 159.97155555555554 107.86133333333332s82.48888888888888 100.01066666666667 107.86133333333332 159.97155555555554c26.282666666666668 62.00888888888889 39.59466666666666 127.88622222222222 39.59466666666666 195.81155555555554 0 95.57333333333332-26.851555555555557 188.52977777777775-77.71022222222221 268.7431111111111-5.347555555555556 8.533333333333333-16.611555555555555 11.036444444444443-25.14488888888889 5.688888888888888-8.533333333333333-5.347555555555556-11.036444444444443-16.611555555555555-5.688888888888888-25.14488888888889 47.104-74.41066666666667 72.02133333333333-160.54044444444443 72.02133333333333-249.17333333333332 0-63.03288888888889-12.288000000000002-124.13155555555554-36.63644444444445-181.7031111111111-23.552-55.52355555555555-57.11644444444445-105.472-100.01066666666667-148.36622222222223s-92.72888888888889-76.57244444444444-148.36622222222223-100.01066666666667c-57.571555555555555-24.348444444444443-118.67022222222222-36.63644444444445-181.7031111111111-36.63644444444445-63.03288888888889 0-124.13155555555554 12.288000000000002-181.7031111111111 36.63644444444445-55.52355555555555 23.552-105.472 57.23022222222222-148.36622222222223 100.01066666666667-42.894222222222226 42.894222222222226-76.57244444444444 92.84266666666666-100.01066666666667 148.36622222222223-24.348444444444443 57.571555555555555-36.63644444444445 118.67022222222222-36.63644444444445 181.58933333333331 0 63.03288888888889 12.288000000000002 124.13155555555554 36.63644444444445 181.58933333333331 23.552 55.52355555555555 57.11644444444445 105.472 100.01066666666667 148.36622222222223s92.72888888888889 76.57244444444444 148.36622222222223 100.01066666666667c57.45777777777778 24.348444444444443 118.55644444444444 36.63644444444445 181.47555555555556 36.63644444444445h0.22755555555555557c54.385777777777776 0 107.63377777777778-9.216 158.2648888888889-27.534222222222223 48.92444444444445-17.635555555555552 94.32177777777778-43.23555555555555 134.94044444444444-76.11733333333333 7.850666666666667-6.371555555555555 19.228444444444442-5.12 25.6 2.7306666666666666 6.371555555555555 7.850666666666667 5.12 19.228444444444442-2.7306666666666666 25.6-43.80444444444444 35.38488888888889-92.84266666666666 63.03288888888889-145.5217777777778 82.03377777777777-54.61333333333334 19.683555555555554-111.95733333333334 29.582222222222224-170.5528888888889 29.582222222222224-0.22755555555555557 0.11377777777777778-0.22755555555555557 0.11377777777777778-0.3413333333333333 0.11377777777777778z" fill="#333333" p-id="637"></path><path d="M283.1928888888889 423.13955555555555a56.88888888888889 56.88888888888889 0 1 0 113.77777777777779 0 56.88888888888889 56.88888888888889 0 1 0-113.77777777777779 0z" fill="#333333" p-id="638"></path><path d="M622.8195555555556 423.13955555555555a56.88888888888889 56.88888888888889 0 1 0 113.77777777777779 0 56.88888888888889 56.88888888888889 0 1 0-113.77777777777779 0zM519.2817777777777 777.216c-56.31999999999999 0-112.07111111111111-20.59377777777778-161.56444444444443-59.733333333333334-37.54666666666667-29.695999999999998-58.254222222222225-59.50577777777777-59.050666666666665-60.757333333333335-5.688888888888888-8.305777777777777-3.640888888888889-19.569777777777773 4.664888888888888-25.372444444444447 8.305777777777777-5.688888888888888 19.569777777777773-3.640888888888889 25.258666666666667 4.664888888888888 0.22755555555555557 0.22755555555555557 19.11466666666667 27.192888888888888 52.565333333333335 53.589333333333336 43.91822222222222 34.474666666666664 91.02222222222221 51.76888888888889 139.94666666666666 51.2h0.22755555555555557c0.22755555555555557 0 30.492444444444445-0.3413333333333333 67.47022222222222-13.425777777777778 48.58311111111111-17.29422222222222 85.5608888888889-47.55911111111111 110.0231111111111-89.99822222222221 5.006222222222222-8.76088888888889 16.156444444444443-11.719111111111113 24.803555555555555-6.712888888888889 8.76088888888889 5.006222222222222 11.719111111111113 16.156444444444443 6.712888888888889 24.803555555555555-28.671999999999997 49.94844444444445-73.95555555555555 86.81244444444444-130.73066666666668 106.60977777777778-41.87022222222222 14.677333333333333-75.66222222222223 15.132444444444445-78.27911111111109 15.132444444444445h-2.048z" fill="#333333" p-id="639"></path></svg>